<svg t="1616981142990" class="icon" viewBox="0 0 1024 1024" version="1.1" xmlns="http://www.w3.org/2000/svg" p-id="14017" width="32" height="32"><path d="M977.1 402.1c-8.9-36.3-21.6-70.8-38-103.6-16.5-32.7-36.9-63.4-61.2-91.8-24.3-28.5-51.7-54.3-81.6-76.9-15.7-11.3-32.7-15.6-50.9-12.8-18.3 2.9-33.1 11.8-44.5 26.8-11.4 15-15.7 31.7-12.9 50.2 2.9 18.5 11.8 33.5 26.9 44.8 45 32.8 79.5 73 103.5 120.7s35.9 99 35.9 153.8c0 47-8.9 91.3-26.9 133-17.8 41.6-42.3 78-73.5 108.9-31.2 30.9-67.6 55.5-109.4 73.7C602.6 847 558.1 856 510.8 856c-47.2 0-91.7-9.1-133.6-27.2-41.9-18.1-78-42.8-109.2-73.8-31.1-30.9-55.8-67.3-74-108.9-18.3-41.6-27.4-86-27.4-133 0-55.5 12.9-108.1 38.6-157.5 25.8-49.4 61.9-90.2 108.3-122.3 15.7-10.7 25.3-25.3 28.4-43.8 3.2-18.5-0.5-35.6-11.3-51.3-10.8-15-25.4-24.1-44-27.2-18.4-3.2-35.6 0.5-51.3 11.2-32.1 22.8-60.8 48.6-85.8 77.5s-46.5 60-64.4 93.4c-17.9 33.6-31.6 69.3-40.7 106.3-9.2 37.3-14 75.3-14 113.7 0 66.2 12.7 128.3 38 186.4 25.4 58 59.8 108.6 103 151.6 43.3 43.1 94 77.3 152.3 102.5 58.3 25.3 120.7 37.9 187.2 37.9 65.8 0 127.8-12.6 186.2-37.9 58.2-25.3 109.2-59.5 152.8-102.5 43.6-43.1 77.9-93.6 103-151.6 25-58 37.5-120.2 37.5-186.4 0.1-37.7-4.4-74.7-13.3-111zM515 542.8c17.5 0 32.6-6.2 45-18.6 12.5-12.4 18.7-27.4 18.7-44.9V95.9c0-17.4-6.2-32.6-18.7-45.4-12.5-12.7-27.5-19.2-45-19.2-18.3 0-33.6 6.4-46.1 19.2-12.5 12.7-18.7 27.9-18.7 45.4v383.3c0 17.4 6.2 32.4 18.7 44.9s27.8 18.7 46.1 18.7z" fill="#ffffff" p-id="14018"></path></svg>