<svg xmlns="http://www.w3.org/2000/svg" width="18" height="18" viewBox="0 0 18 18"><defs><style>.a{fill:#fff;stroke:#707070;opacity:0;}.b{fill:#157efc;}.c{stroke:none;}.d{fill:none;}</style></defs><g transform="translate(-1557 -322)"><g class="a" transform="translate(1557 322)"><rect class="c" width="18" height="18"/><rect class="d" x="0.5" y="0.5" width="17" height="17"/></g><path class="b" d="M-5932.5,10788.5a.486.486,0,0,1-.379-.146l-4.95-4.949a.5.5,0,0,1,0-.707.5.5,0,0,1,.707,0l4.126,4.126V10778a.5.5,0,0,1,.5-.5.5.5,0,0,1,.5.5v8.818l4.116-4.118a.5.5,0,0,1,.707,0,.5.5,0,0,1,0,.707l-4.947,4.949a.5.5,0,0,1-.354.148A.1.1,0,0,1-5932.5,10788.5Zm-5-13.5a.5.5,0,0,1-.5-.5.5.5,0,0,1,.5-.5h10a.5.5,0,0,1,.5.5.5.5,0,0,1-.5.5Z" transform="translate(7498.5 -10450)"/></g></svg>