<svg xmlns="http://www.w3.org/2000/svg" xmlns:xlink="http://www.w3.org/1999/xlink" width="124" height="80" viewBox="0 0 124 80"><defs><style>.a{fill:#fff;stroke:#707070;opacity:0;}.b{fill:url(#a);}.c{fill:url(#b);}.d{fill:url(#c);}.e{fill:url(#d);}.f{fill:url(#e);}.g{fill:url(#f);}.h{stroke:none;}.i{fill:none;}</style><linearGradient id="a" x1="0.844" y1="-0.127" x2="0.848" y2="0.444" gradientUnits="objectBoundingBox"><stop offset="0" stop-color="#e4eff7"/><stop offset="1" stop-color="#b8cede"/></linearGradient><linearGradient id="b" x1="0.5" x2="0.064" y2="0.348" gradientUnits="objectBoundingBox"><stop offset="0" stop-color="#cddeea"/><stop offset="1" stop-color="#e4eef5"/></linearGradient><linearGradient id="c" x1="1.034" y1="1.027" x2="-0.101" y2="0.533" gradientUnits="objectBoundingBox"><stop offset="0" stop-color="#e7f2f8"/><stop offset="1" stop-color="#c3daeb"/></linearGradient><linearGradient id="d" x1="-0.204" x2="0.924" y2="0.824" gradientUnits="objectBoundingBox"><stop offset="0" stop-color="#f0f8fd"/><stop offset="1" stop-color="#caddea"/></linearGradient><linearGradient id="e" x1="0.5" y1="-0.032" x2="0.5" y2="1" gradientUnits="objectBoundingBox"><stop offset="0" stop-color="#eff5fa"/><stop offset="1" stop-color="#c8d9e5"/></linearGradient><linearGradient id="f" x1="0.5" x2="0.5" y2="1" gradientUnits="objectBoundingBox"><stop offset="0" stop-color="#d0dee8"/><stop offset="1" stop-color="#ecf5fc"/></linearGradient></defs><g transform="translate(-1008 -509)"><g class="a" transform="translate(1008 509)"><rect class="h" width="124" height="80"/><rect class="i" x="0.5" y="0.5" width="123" height="79"/></g><path class="b" d="M-3260.666-14451.667l-40.334,8.5v32.5l40.334,1.834Z" transform="translate(4323.667 14964)"/><path class="c" d="M-3209.348-14445.5l-51.318-6v42.667h50.166Z" transform="translate(4323.667 14964)"/><path class="d" d="M-3301-14443.167l47.167,5.5v60.5l-47.167-12.166Z" transform="translate(4323.667 14964)"/><path class="e" d="M-3253.833-14377.167l44.5-13.666v-54.667l-44.478,7.886Z" transform="translate(4323.667 14964)"/><path class="f" d="M-3253.833-14437.667l14.666,24,43.668-11.166-13.833-20.667Z" transform="translate(4323.667 14964)"/><path class="g" d="M-3312.667-14423.5c.589.089,48.166,9.833,48.166,9.833,0-.166,10.659-24,10.659-24l-47.138-5.5Z" transform="translate(4323.667 14964)"/></g></svg>