<svg xmlns="http://www.w3.org/2000/svg" width="9.821" height="8.351" viewBox="0 0 9.821 8.351">
  <defs>
    <style>
      .cls-1 {
        fill: #fff;
      }

      .cls-2, .cls-3 {
        stroke: none;
      }

      .cls-3 {
        fill: #666;
      }
    </style>
  </defs>
  <g id="矩形_9_拷贝_4" data-name="矩形 9 拷贝 4" class="cls-1" transform="translate(0 0)">
    <path class="cls-2" d="M 9.1934814453125 7.850703239440918 C 9.1693115234375 7.850703239440918 9.134001731872559 7.844213485717773 9.103041648864746 7.813303470611572 L 5.555941581726074 4.26503324508667 C 5.506221294403076 4.215283393859863 5.506181240081787 4.134343147277832 5.555881500244141 4.084633350372314 L 9.103311538696289 0.5370132923126221 C 9.134051322937012 0.5062932968139648 9.1693115234375 0.4998233318328857 9.193451881408691 0.4998233318328857 C 9.217591285705566 0.4998233318328857 9.252840995788574 0.5062932968139648 9.283671379089355 0.5371133089065552 C 9.334071159362793 0.5875033140182495 9.333731651306152 0.6670233011245728 9.282851219177246 0.7181133031845093 L 6.178791522979736 3.822363376617432 L 5.825201511383057 4.175973415374756 L 6.178861618041992 4.529513359069824 L 9.283651351928711 7.633273124694824 C 9.314481735229492 7.664083480834961 9.320940971374512 7.699253082275391 9.320940971374512 7.723343372344971 C 9.320940971374512 7.747463226318359 9.314461708068848 7.782693386077881 9.283641815185547 7.813513278961182 C 9.252891540527344 7.844213485717773 9.217621803283691 7.850703239440918 9.1934814453125 7.850703239440918 Z M 4.175411224365234 7.850703239440918 C 4.1515212059021 7.850703239440918 4.116551399230957 7.844213485717773 4.085591316223145 7.813303470611572 L 0.5372014045715332 4.264973163604736 C 0.4875714182853699 4.215303421020508 0.4875314235687256 4.134323120117188 0.5372514128684998 4.084593296051025 L 4.085801601409912 0.5370833277702332 C 4.116601467132568 0.5062932968139648 4.151541233062744 0.4998233318328857 4.175421237945557 0.4998233318328857 C 4.199321269989014 0.4998233318328857 4.234291553497314 0.5063033103942871 4.265171527862549 0.5371633172035217 C 4.29668140411377 0.5685233473777771 4.303181648254395 0.6030633449554443 4.303201198577881 0.6266433000564575 C 4.303231239318848 0.6506032943725586 4.29664134979248 0.6857733130455017 4.265081405639648 0.7173233032226563 L 1.160171389579773 3.822353363037109 L 0.8065714240074158 4.175973415374756 L 1.160241484642029 4.529523372650146 L 4.265101432800293 7.633283138275146 C 4.296741485595703 7.664753437042236 4.303201198577881 7.699533462524414 4.303201198577881 7.723323345184326 C 4.303211212158203 7.747153282165527 4.296731472015381 7.782013416290283 4.265871524810791 7.812723159790039 C 4.234341621398926 7.844213485717773 4.199331283569336 7.850703239440918 4.175411224365234 7.850703239440918 Z"/>
    <path class="cls-3" d="M 9.193488121032715 8.350706100463867 C 9.03290843963623 8.350706100463867 8.872250556945801 8.289416313171387 8.749751091003418 8.167126655578613 L 5.202329635620117 4.618521690368652 C 4.957329750061035 4.373416423797607 4.957329750061035 3.976074457168579 5.202329635620117 3.731074333190918 L 8.749751091003418 0.1834691166877747 C 8.872250556945801 0.06103489920496941 9.032849311828613 -0.0001822060003178194 9.193448066711426 -0.0001822060003178194 C 9.354046821594238 -0.0001822060003178194 9.514645576477051 0.06103489920496941 9.63714599609375 0.1834691166877747 C 9.882198333740234 0.4284691214561462 9.882198333740234 0.8248375058174133 9.63714599609375 1.070916533470154 L 6.532356262207031 4.17591667175293 L 9.63714599609375 7.279653549194336 C 9.882198333740234 7.524548053741455 9.882198333740234 7.922126770019531 9.63714599609375 8.167126655578613 C 9.514645576477051 8.289416313171387 9.354066848754883 8.350706100463867 9.193488121032715 8.350706100463867 Z M 4.175408840179443 8.350706100463867 C 4.015145778656006 8.350706100463867 3.854803562164307 8.289416313171387 3.732303619384766 8.167126655578613 L 0.183645635843277 4.618521690368652 C -0.061275415122509 4.373416423797607 -0.061275415122509 3.976074457168579 0.183645635843277 3.731074333190918 L 3.732303619384766 0.1834691166877747 C 3.854803562164307 0.06103489920496941 4.01511287689209 -0.0001822060003178194 4.17542839050293 -0.0001822060003178194 C 4.335744380950928 -0.0001822060003178194 4.496066570281982 0.06103489920496941 4.618593215942383 0.1834691166877747 C 4.864750862121582 0.4284691214561462 4.864750862121582 0.8248375058174133 4.618593215942383 1.070916533470154 L 1.513724565505981 4.17591667175293 L 4.618593215942383 7.279653549194336 C 4.864750862121582 7.524548053741455 4.864750862121582 7.922126770019531 4.618593215942383 8.167126655578613 C 4.496092796325684 8.289416313171387 4.335751056671143 8.350706100463867 4.175408840179443 8.350706100463867 Z"/>
  </g>
</svg>
