<?xml version="1.0" standalone="no"?><!DOCTYPE svg PUBLIC "-//W3C//DTD SVG 1.1//EN" "http://www.w3.org/Graphics/SVG/1.1/DTD/svg11.dtd"><svg class="icon" width="200px" height="200.00px" viewBox="0 0 1024 1024" version="1.1" xmlns="http://www.w3.org/2000/svg"><path d="M227.555556 853.333333a113.777778 113.777778 0 0 1-113.777778-113.777777V455.111111a113.777778 113.777778 0 0 1 113.777778-113.777778h56.888888V85.333333a28.444444 28.444444 0 1 1 56.888889 0V341.333333h341.333334V85.333333a28.444444 28.444444 0 1 1 56.888889 0V341.333333h56.888888a113.777778 113.777778 0 0 1 113.777778 113.777778v284.444445a113.777778 113.777778 0 0 1-113.777778 113.777777z m455.111111-142.222222a28.444444 28.444444 0 0 0 28.444444 28.444445h56.888889a28.444444 28.444444 0 1 0 0-56.888889h-56.888889a28.444444 28.444444 0 0 0-28.444444 28.444444z m-113.777778 0a28.444444 28.444444 0 1 0 28.444444-28.444444 28.444444 28.444444 0 0 0-28.444444 28.444444z m-113.777778 0a28.103111 28.103111 0 0 0 28.444445 28.444445 28.444444 28.444444 0 1 0-28.444445-28.444445z"  /></svg>
