<?xml version="1.0" standalone="no"?><!DOCTYPE svg PUBLIC "-//W3C//DTD SVG 1.1//EN" "http://www.w3.org/Graphics/SVG/1.1/DTD/svg11.dtd"><svg t="1634088174460" class="icon" viewBox="0 0 1024 1024" version="1.1" xmlns="http://www.w3.org/2000/svg" p-id="1861" xmlns:xlink="http://www.w3.org/1999/xlink" width="200" height="200"><defs><style type="text/css"></style></defs><path d="M32 511.872a480 480 0 1 1 480 480 480.384 480.384 0 0 1-480-480z m64 0a416 416 0 1 0 416-416 416.512 416.512 0 0 0-416 416z m405.76 230.976h-3.008a32 32 0 0 1-29.12-33.344l11.008-190.784c3.264-70.4-26.496-65.472-26.496-65.472l97.344-36.608-5.76 88.064-8.256 139.008h0.64l-1.472 26.496v0.576c0 9.216 3.52 30.656 21.376 30.976a56.384 56.384 0 0 1-54.144 41.344z m-40.512-436.992a47.936 47.936 0 1 1 48 48.192 47.936 47.936 0 0 1-48-48.192z" fill="#666666" p-id="1862"></path></svg>