<svg xmlns="http://www.w3.org/2000/svg" width="9.82" height="8.351" viewBox="0 0 9.82 8.351">
  <defs>
    <style>
      .cls-1 {
        fill: #fff;
      }

      .cls-2, .cls-3 {
        stroke: none;
      }

      .cls-3 {
        fill: #666;
      }
    </style>
  </defs>
  <g id="矩形_9_拷贝_5" data-name="矩形 9 拷贝 5" class="cls-1" transform="translate(0 0)">
    <path class="cls-2" d="M 5.644410133361816 7.850703239440918 C 5.620349884033203 7.850703239440918 5.585299968719482 7.84432315826416 5.554960250854492 7.813923358917236 C 5.523769855499268 7.78273344039917 5.517300128936768 7.747483253479004 5.517300128936768 7.723343372344971 C 5.517300128936768 7.699233531951904 5.523759841918945 7.664043426513672 5.554510116577148 7.633313179016113 L 8.65939998626709 4.529523372650146 L 9.013070106506348 4.175973415374756 L 8.659469604492188 3.822353363037109 L 5.554610252380371 0.7173733115196228 C 5.504499912261963 0.667033314704895 5.504149913787842 0.5874833464622498 5.554600238800049 0.5370333194732666 C 5.585360050201416 0.5061533451080322 5.620319843292236 0.4998233318328857 5.644370079040527 0.4998233318328857 C 5.668710231781006 0.4998233318328857 5.704200267791748 0.5062932968139648 5.735030174255371 0.5371133089065552 L 9.282429695129395 4.084633350372314 C 9.33213996887207 4.134343147277832 9.332099914550781 4.215283393859863 9.282340049743652 4.265073299407959 L 5.734889984130859 7.813613414764404 C 5.702620029449463 7.845853328704834 5.664340019226074 7.850703239440918 5.644410133361816 7.850703239440918 Z M 0.6263400316238403 7.850703239440918 C 0.6025800108909607 7.850703239440918 0.5679700374603271 7.844383239746094 0.5380000472068787 7.81428337097168 C 0.506350040435791 7.782653331756592 0.4998800456523895 7.747453212738037 0.4998800456523895 7.723343372344971 C 0.4998800456523895 7.699273109436035 0.5063400268554688 7.66412353515625 0.5370900630950928 7.633393287658691 L 3.640910148620605 4.529453277587891 L 3.994369983673096 4.175973415374756 L 3.640980005264282 3.822423219680786 L 0.537350058555603 0.7174433469772339 C 0.4871000349521637 0.667003333568573 0.4867600500583649 0.5875133275985718 0.5371800661087036 0.5371233224868774 C 0.568030059337616 0.5061333179473877 0.6026200652122498 0.4998233318328857 0.6263700127601624 0.4998233318328857 C 0.6504600644111633 0.4998233318328857 0.6856500506401062 0.5062932968139648 0.7164900302886963 0.5371233224868774 L 4.26501989364624 4.084683418273926 C 4.314690113067627 4.134343147277832 4.314650058746338 4.215283393859863 4.264890193939209 4.265063285827637 L 0.7164000272750854 7.813563346862793 C 0.6857000589370728 7.844203472137451 0.6504500508308411 7.850703239440918 0.6263400316238403 7.850703239440918 Z"/>
    <path class="cls-3" d="M 5.644421577453613 8.350706100463867 C 5.48363208770752 8.350706100463867 5.323132038116455 8.289416313171387 5.201053142547607 8.167126655578613 C 4.956053256988525 7.922126770019531 4.956053256988525 7.524548053741455 5.201053142547607 7.279653549194336 L 8.30589485168457 4.17591667175293 L 5.201053142547607 1.070916533470154 C 4.956053256988525 0.8248375058174133 4.956053256988525 0.4284691214561462 5.201053142547607 0.1834691166877747 C 5.323000431060791 0.06103489920496941 5.483612537384033 -0.0001822060003178194 5.644362449645996 -0.0001822060003178194 C 5.805112361907959 -0.0001822060003178194 5.966000556945801 0.06103489920496941 6.088500499725342 0.1834691166877747 L 9.635973930358887 3.731074333190918 C 9.880973815917969 3.976074457168579 9.880973815917969 4.373416423797607 9.635973930358887 4.618521690368652 L 6.088500499725342 8.167126655578613 C 5.966053009033203 8.289416313171387 5.805184841156006 8.350706100463867 5.644421577453613 8.350706100463867 Z M 0.6263426542282104 8.350706100463867 C 0.4659479260444641 8.350706100463867 0.3055531978607178 8.289416313171387 0.1837110966444016 8.167126655578613 C -0.06139416992664337 7.922126770019531 -0.06139416992664337 7.524548053741455 0.1837110966444016 7.279653549194336 L 3.28734278678894 4.17591667175293 L 0.1837110966444016 1.070916533470154 C -0.06139416992664337 0.8248375058174133 -0.06139416992664337 0.4284691214561462 0.1837110966444016 0.1834691166877747 C 0.3056058287620544 0.06103489920496941 0.4659150242805481 -0.0001822060003178194 0.6263755559921265 -0.0001822060003178194 C 0.7868360877037048 -0.0001822060003178194 0.9474479556083679 0.06103489920496941 1.069947957992554 0.1834691166877747 L 4.618526935577393 3.731074333190918 C 4.863526821136475 3.976074457168579 4.863526821136475 4.373416423797607 4.618526935577393 4.618521690368652 L 1.069947957992554 8.167126655578613 C 0.9473953247070313 8.289416313171387 0.7867373824119568 8.350706100463867 0.6263426542282104 8.350706100463867 Z"/>
  </g>
</svg>
