<?xml version="1.0" standalone="no"?><!DOCTYPE svg PUBLIC "-//W3C//DTD SVG 1.1//EN" "http://www.w3.org/Graphics/SVG/1.1/DTD/svg11.dtd"><svg t="1631167556191" class="icon" viewBox="0 0 1024 1024" version="1.1" xmlns="http://www.w3.org/2000/svg" p-id="1420" xmlns:xlink="http://www.w3.org/1999/xlink" width="200" height="200"><defs><style type="text/css"></style></defs><path d="M737.288192 569.447424c106.631168 0 193.073152 86.44096 193.073152 193.071104 0 106.62912-86.441984 193.071104-193.073152 193.071104-106.632192 0-193.072128-86.44096-193.072128-193.071104-0.03072-106.646528 86.428672-193.10592 193.073152-193.071104h-0.001024z m94.514176 288.617472c12.499968-12.5952 12.499968-32.915456 0-45.510656l-62.32064-62.4384v-82.454528c0-17.784832-14.41792-32.202752-32.2048-32.202752-17.784832 0-32.202752 14.41792-32.202752 32.202752l0.007168 82.453504a64.5376 64.5376 0 0 0 18.890752 45.510656l62.30528 62.422016c12.594176 12.51328 32.92672 12.51328 45.520896 0l0.004096 0.017408z" fill="#666666" p-id="1421"></path><path d="M485.910528 684.288h-236.11392c-20.217856 0-33.691648-13.417472-33.691648-33.507328s13.473792-33.507328 33.691648-33.507328h269.111296c77.671424-112.787456 230.18496-144.77312 346.630144-72.696832V101.7856C865.538048 76.105728 848.05632 57.344 821.817344 57.344H125.514752C98.18112 57.344 80.896 74.222592 81.7664 101.784576v815.161344c0 13.827072 6.588416 24.190976 16.41472 31.105024a28.57472 28.57472 0 0 0 32.800768 0c32.786432-20.699136 68.44416-51.54816 85.21216-61.812736 20.103168 13.684736 72.543232 36.560896 113.911808 60.89216a28.27776 28.27776 0 0 0 17.23392 6.065152c6.903808 0 13.799424 0 20.70016-3.024896 44.845056-24.333312 93.523968-50.24768 116.954112-63.930368 7.323648 3.73248 18.06848 9.89696 30.666752 17.408a255.489024 255.489024 0 0 1-42.008576-140.807168 256.723968 256.723968 0 0 1 12.259328-78.553088zM248.85248 258.940928h226.041856c19.595264 0 32.658432 13.37344 32.658432 33.46432 0 20.09088-13.06112 33.56672-32.7424 33.56672H248.81152c-19.623936 0-32.730112-13.430784-32.730112-33.521664 0-20.09088 13.106176-33.46432 32.731136-33.46432l0.04096-0.045056z m1.017856 179.18464h358.445056c20.217856 0 33.705984 13.418496 33.691648 33.506304-0.01536 20.088832-13.481984 33.52576-33.717248 33.52576h-358.46144c-20.217856 0-33.691648-13.431808-33.691648-33.522688s13.473792-33.46432 33.691648-33.46432l0.04096-0.045056z" fill="#666666" p-id="1422"></path></svg>