<svg xmlns="http://www.w3.org/2000/svg" xmlns:xlink="http://www.w3.org/1999/xlink" width="291.435" height="283.534" viewBox="0 0 291.435 283.534"><defs><style>.a{fill:#f8b3a8;}.b{fill:#37425b;}.c{fill:#a0b1d9;}.d{fill:#dae3f4;}.e{fill:#c5d1f0;}.f{fill:#aeb9da;}.g{fill:url(#a);}.h{fill:#34a075;}.i{fill:url(#b);}.j{fill:url(#c);}.k{fill:#f3cf43;}.l{fill:#fff;}.m{fill:#65a0ff;}.n{fill:#233fee;}.o{fill:#3f1314;}.p{clip-path:url(#f);}.q{fill:#e28171;}.r{fill:#2539fd;}.s{fill:#4b5cfd;}.t{fill:#47090d;}.u{fill:#fdc6bd;}.v{fill:#ffd6b2;}.w{fill:#3e6ff0;}.x{fill:#ff91c0;}.y{fill:#fd7ab2;}.z{fill:#ff8ebe;}.aa{fill:#3b1b16;}.ab{clip-path:url(#g);}.ac{fill:#1f2739;}.ad{clip-path:url(#h);}.ae{filter:url(#d);}</style><linearGradient id="a" x1="0.5" y1="0.995" x2="0.5" y2="0.005" gradientUnits="objectBoundingBox"><stop offset="0" stop-color="#fff"/><stop offset="0.018" stop-color="#fff"/><stop offset="1" stop-color="#dfe7f8"/></linearGradient><linearGradient id="b" x1="0.5" y1="0.995" x2="0.5" y2="0.005" gradientUnits="objectBoundingBox"><stop offset="0" stop-color="#dae4fb"/><stop offset="0.012" stop-color="#dae4fb"/><stop offset="1" stop-color="#b9c9ee"/></linearGradient><linearGradient id="c" x1="0.005" y1="0.5" x2="0.995" y2="0.5" xlink:href="#b"/><filter id="d" x="0" y="0" width="254.167" height="224.188" filterUnits="userSpaceOnUse"><feOffset input="SourceAlpha"/><feGaussianBlur stdDeviation="23" result="e"/><feFlood flood-color="#0c1dc3" flood-opacity="0.102"/><feComposite operator="in" in2="e"/><feComposite in="SourceGraphic"/></filter><clipPath id="f"><path class="a" d="M521,758v7.972l5.436,2.537,2.9-1.812a5.886,5.886,0,0,1-1.45-2.537v-2.537Z" transform="translate(-521 -758)"/></clipPath><clipPath id="g"><path class="b" d="M944.336,1083.6s-2.658-3.3-3.261-6.16c0,0,.163-4.469-3.986-3.624,0,0-2.349,2.651-1.449,9.422,0,0,.5,3.832.725,6.523,0,0-.205,1.431-.725,1.087,0,0-.365,5.3.725,5.8,0,0,1.549,1.365,4.711-3.261,0,0,2.313-2.437,2.174-4.711,0,0-1.525-4.844-1.812-5.436l2.174,1.812Z" transform="translate(-935.433 -1073.706)"/></clipPath><clipPath id="h"><path class="b" d="M861.617,1107.059s.432,2.129,2.174,1.087a12.186,12.186,0,0,0,1.449-2.536s3.013-6.931,5.8-7.61a16.293,16.293,0,0,0,1.812,2.174s1.386.963.725,3.261l-2.174,10.509-1.449-.362.362-7.972s-.32-.2-.725,1.087c0,0-1.894,4.78-5.073,5.436a7.455,7.455,0,0,1-6.885-3.261s-.918-1.912,1.087-1.812C858.718,1107.059,861.04,1107.068,861.617,1107.059Z" transform="translate(-857.421 -1098)"/></clipPath></defs><g transform="translate(-569.271 -401.6)"><path class="c" d="M1056.16,763.013s3.611-3.3,4.348-7.247c0,0,.31-3.946,5.8-5.8,0,0,3.466-1.193,4.711-7.247,0,0,1.348-13.947,21.742-19.568,0,0,8-2.706,4.348,4.711,0,0-4.756,17.788-10.509,21.38,0,0-.094,12.449-15.944,19.568,0,0-6.246,6.41-20.655,8.334Z" transform="translate(-237.357 -189.489)"/><path class="d" d="M1042.348,858.9s12.509-15.993,28.265-10.509c0,0,8.209-1.747,12.321-1.45,0,0,7.774-.266,1.449,6.523,0,0-7.8,11.394-17.031,11.6,0,0-9.21-1.6-14.132.725,0,0-9.281,3.921-15.219.725Z" transform="translate(-229.705 -268.705)"/><path class="e" d="M989,751.1s3.8-34.1,17.394-38.411c0,0-.529-17.354,3.986-23.192,0,0,3.345-14.133,9.059-14.495,0,0,6.944,2.1,7.248,13.77,0,0,8.507,16.821-7.61,32.251,0,0,11.076,36.4-26.091,46.746Z" transform="translate(-198.461 -159.093)"/><path class="f" d="M988,799.328s22.043-26.759,28.99-62.328c0,0-4.611,35.874-28.627,65.589Z" transform="translate(-197.824 -198.626)"/><path class="g" d="M485,657.179s7.083-77.813,46.383-57.254c0,0,11.771-29.06,37.687-18.119,0,0-5.147-57.919,29.714-60.878,0,0,32.913-5.51,76.822,110.885,0,0,15.491,40.368,18.843,71.749H487.174Z" transform="translate(122.904 -60.826)"/><path class="h" d="M417.561,970.766s-12.067-13.08-15.582-23.192c0,0-2.391-6.449,2.537-7.61,0,0,2.265-.542,4.348,3.986C408.864,943.951,414.856,960.239,417.561,970.766Z" transform="translate(176.211 -328.029)"/><rect class="i" width="153.64" height="59.957" transform="translate(594.24 593.324)"/><path class="j" d="M433,1029h13.045l-1.45,9.422H434.087Z" transform="translate(156.061 -384.813)"/><path class="h" d="M440.591,975.254s-5.357-14.354-3.986-23.916c0,0,.924-4.455,3.261-1.812a15,15,0,0,1,2.537,10.509S441.2,971.491,440.591,975.254Z" transform="translate(153.905 -333.604)"/><path class="k" d="M449,995.354s1.263-11.545,4.711-15.582c0,0,2.863-2.849,5.073,0,0,0,1.595,1.325-.362,5.073C458.422,984.846,451.833,993.283,449,995.354Z" transform="translate(145.859 -352.617)"/><path class="h" d="M455,1007.958s3.219-9.71,7.972-10.871a5.133,5.133,0,0,1,5.073.362s.55,1.264-1.45,2.9C466.6,1000.348,458.358,1006.225,455,1007.958Z" transform="translate(142.033 -364.134)"/><g class="ae" transform="matrix(1, 0, 0, 1, 569.27, 401.6)"><rect class="l" width="116.167" height="86.188" rx="6" transform="translate(69 69)"/></g><path class="m" d="M116.168,12.179H0V6A6.007,6.007,0,0,1,6,0H110.167a6.007,6.007,0,0,1,6,6v6.177Z" transform="translate(638.271 470.6)"/><rect class="d" width="91.81" height="10.305" rx="2" transform="translate(650.513 492.084)"/><path class="h" d="M11.817,23.634a11.765,11.765,0,0,1-5.675-1.449H1.087l.328-4.756A11.819,11.819,0,1,1,22.7,7.217,11.813,11.813,0,0,1,11.817,23.634Zm5.4-13.045a1.268,1.268,0,1,0,1.268,1.268A1.27,1.27,0,0,0,17.212,10.588Zm-5.435,0a1.268,1.268,0,1,0,1.268,1.268A1.27,1.27,0,0,0,11.777,10.588Zm-5.436,0A1.268,1.268,0,1,0,7.61,11.857,1.27,1.27,0,0,0,6.341,10.588Z" transform="translate(776.407 467.27)"/><path class="n" d="M11.71,23.421A11.713,11.713,0,0,1,7.152.92,11.707,11.707,0,0,1,23.421,11.71a11.66,11.66,0,0,1-1.4,5.562l.325,4.713H17.334a11.659,11.659,0,0,1-5.624,1.436Zm5.426-12.928a1.258,1.258,0,1,0,1.258,1.258A1.259,1.259,0,0,0,17.137,10.492Zm-5.387,0a1.258,1.258,0,1,0,1.258,1.258A1.259,1.259,0,0,0,11.75,10.492Zm-5.387,0A1.258,1.258,0,1,0,7.621,11.75,1.259,1.259,0,0,0,6.363,10.492Z" transform="translate(574.566 502.452)"/><ellipse class="l" cx="1.83" cy="1.83" rx="1.83" ry="1.83" transform="translate(647.12 474.844)"/><ellipse class="l" cx="1.83" cy="1.83" rx="1.83" ry="1.83" transform="translate(656.18 474.844)"/><ellipse class="l" cx="1.83" cy="1.83" rx="1.83" ry="1.83" transform="translate(665.239 474.844)"/><path class="c" d="M13.116,26.231A13.116,13.116,0,0,1,3.841,3.841,13.116,13.116,0,1,1,22.39,22.39,13.03,13.03,0,0,1,13.116,26.231Zm0-21.2a.54.54,0,0,0-.539.539v7.187a.535.535,0,0,0,.305.485.53.53,0,0,0,.162.143l6.223,3.594a.539.539,0,1,0,.539-.933l-6.152-3.551V5.569A.54.54,0,0,0,13.116,5.03Z" transform="translate(640.145 420.011)"/><path class="d" d="M1,29.978a1,1,0,0,1-1-1V25.129a1,1,0,0,1,1-1H46.778a1,1,0,0,1,1,1v3.849a1,1,0,0,1-1,1ZM1,17.914a1,1,0,0,1-1-1V13.064a1,1,0,0,1,1-1H46.778a1,1,0,0,1,1,1v3.849a1,1,0,0,1-1,1ZM1,5.849a1,1,0,0,1-1-1V1A1,1,0,0,1,1,0H46.778a1,1,0,0,1,1,1V4.849a1,1,0,0,1-1,1Z" transform="translate(694.544 511.82)"/><rect class="d" width="37.473" height="37.473" rx="3" transform="translate(650.513 507.136)"/><path class="o" d="M511.33,721.249s5.571,2.992,9.422-.362c0,0,1.967-2.266.725-3.624a22.976,22.976,0,0,1-2.537-2.174,3.783,3.783,0,0,0-2.536-.362s-4.137-2.648-6.885-.362c0,0-2.156,2.151-2.536,3.986,0,0-3.98,1.68-2.537,6.523,0,0-.106,4.869,3.624,4.349,0,0,1.927-.873,1.449-2.174a9.077,9.077,0,0,1,0-2.537A7.926,7.926,0,0,0,511.33,721.249Z" transform="translate(110.707 -183.6)"/><g transform="translate(620.95 545.984)"><path class="a" d="M521,758v7.972l5.436,2.537,2.9-1.812a5.886,5.886,0,0,1-1.45-2.537v-2.537Z" transform="translate(-521 -758)"/><g class="p" transform="translate(0 0)"><path class="q" d="M521,761s.889,4.622,7.61,5.073v-2.9Z" transform="translate(-521 -759.913)"/></g></g><path class="l" d="M518.362,775l2.537,2.537,2.174.362,2.9-.725,2.9-.725,3.986,34.787L518,811.962Z" transform="translate(101.863 -222.856)"/><path class="r" d="M541,776l3.624,40.948h13.408l-13.408-40.223Z" transform="translate(87.197 -223.494)"/><path class="r" d="M487,786.349,498.6,782v31.526H487Z" transform="translate(121.629 -227.319)"/><path class="a" d="M531,876.023h2.75s8.635-6.3,12.832,3.422H531Z" transform="translate(93.573 -285.99)"/><path class="s" d="M476.829,775l-3.624.362s-5.015.4-7.247,7.247l-7.61,24.279s-3.831,9.671,3.986,9.422h23.192v-8.334l-13.77-1.812,7.972-25.728V775Z" transform="translate(140.497 -222.856)"/><path class="s" d="M542,776l5.8.362s3.211-.4,5.8,3.624l11.233,26.091,1.449,2.174a10.6,10.6,0,0,1,5.8,3.986,4.666,4.666,0,0,1,.362,2.9h-1.087s.4-2.957-1.812-3.261c0,0-4.87-1.477-7.972,1.449,0,0-.805,1.645-1.087,2.174s-3.624-2.537-3.624-2.537l-9.422-24.279Z" transform="translate(86.56 -223.494)"/><path class="t" d="M5.044,14.53c-5.4-2.513-3.174-10.96-2.907-11.9L0,1.09,2.162,0l1.8.726L2.522,2.906c1.463,8.627,3.6,9.081,3.6,9.081,2.324,2.036,6.486,2.18,6.486,2.18l1.441,3.269-3.6.363C9.418,17.115,5.044,14.53,5.044,14.53Z" transform="translate(624.218 554.914)"/><path class="l" d="M519.989,774c.087.075,4.349,2.537,4.349,2.537l3.986-.725,1.087,3.261-3.986-1.449-4.711,1.812S519.9,773.924,519.989,774Z" transform="translate(100.599 -222.217)"/><path class="a" d="M528.234,733.725s1.272,9.349-1.087,11.6c0,0-1.678,2.246-5.435,1.087,0,0-3.611-1.1-4.711-6.885a22.743,22.743,0,0,0,0-2.536s2.157-1.994,2.536-3.986C519.537,733,524.888,735.3,528.234,733.725Z" transform="translate(102.5 -196.075)"/><path class="t" d="M527.174,743.621s.1-.219,1.087-.362c0,0,.551-.61-.725-.362,0,0-.146-.128-.725.362C526.811,743.258,526.405,743.915,527.174,743.621Z" transform="translate(96.313 -202.347)"/><path class="t" d="M540.021,740.587s.143-.193,1.139-.122c0,0,.669-.478-.631-.509,0,0-.116-.156-.785.2C539.744,740.156,539.208,740.711,540.021,740.587Z" transform="translate(88.109 -200.489)"/><path class="t" d="M529.2,747.088c.286-.09.64.224.79.7s.039.937-.247,1.027-.64-.224-.79-.7S528.912,747.178,529.2,747.088Z" transform="translate(94.923 -205.048)"/><path class="t" d="M542.2,745.088c.286-.09.64.224.79.7s.039.937-.247,1.027-.64-.224-.79-.7S541.912,745.178,542.2,745.088Z" transform="translate(86.634 -203.773)"/><path class="t" d="M534.184,758.877s.492.571,1.812,0c0,0,.482-.042,0,.362,0,0-.643,1.049-2.174,0C533.821,759.24,533.43,758.6,534.184,758.877Z" transform="translate(91.839 -212.531)"/><path class="a" d="M514.615,750.786s-1.373-1.553-1.812,0a2.43,2.43,0,0,0,.362,2.174s1.538,1.953,2.9,0Z" transform="translate(105.248 -206.976)"/><path class="u" d="M869.77,962.725l-1.812,10.146a10.031,10.031,0,0,0,.362,3.986,38.052,38.052,0,0,1,.725,14.132s.134,5.657,0,10.509c0,0-.824,6.6,1.087,9.784l-3.986,9.784L861.8,1023.6l-2.174-2.174s4.942-2.831,3.986-10.871L856,962Z" transform="translate(-113.656 -342.092)"/><path class="u" d="M892,956.711l11.958,37.324a25.692,25.692,0,0,1,1.45,7.247s2.244,9.176,2.9,12.683l1.812-5.073-1.087-9.059,1.087-2.9s-2.241-2.042-1.812-13.045c0,0-.011-9.015-1.449-13.77,0,0-4.15-14.717-4.348-18.119Z" transform="translate(-136.611 -335.716)"/><path class="a" d="M596.879,877.958s.267,1.515-1.087,1.087c0,0-1.978-.922-1.812-2.174a1.429,1.429,0,0,1,.725-1.449,2.271,2.271,0,0,1,2.537-1.812,5.9,5.9,0,0,1,5.8,0s2.259,1.468,1.087,4.711c0,0-.612,1.45-1.449.362,0,0-.613-.6-.725-.725,0,0,.146,1-.725,1.087,0,0-1.228-.128-1.449-1.087,0,0-.388,1.533-1.449,1.087C598.329,879.045,596.967,878.557,596.879,877.958Z" transform="translate(53.422 -285.228)"/><path class="v" d="M927.537,889s2.047,5.149-.725,7.61L925,891.174Z" transform="translate(-157.653 -295.546)"/><path class="w" d="M851.986,888.624,848,915.439s5.817,3.727,20.293.725c0,0,8.1-.017,10.146-2.537a48.671,48.671,0,0,1-.725-13.408s2.122-11.508-2.174-15.22Z" transform="translate(-108.555 -292.995)"/><path class="x" d="M921,796.7s1.548,8.45,2.174,12.321a19.807,19.807,0,0,1-.362,4.711L921,822.063v1.812l4.711,2.536,3.261-7.972s1.6-4.418,1.087-6.523l-1.449-22.829L924.986,788Z" transform="translate(-155.102 -231.145)"/><path class="y" d="M866.233,782.624s-4.428,1.657-6.16,3.986l1.45,13.045s-5,15.349-6.523,22.467c0,0,6.879,4.9,20.293,2.174,0,0,6.138-1.414,7.61-3.986,0,0-.424-3.714-3.986-10.146,0,0-1.75-3.917-.362-6.885,0,0,2.41-8.629,4.348-10.509L878.916,779Z" transform="translate(-113.019 -225.406)"/><path class="a" d="M789.109,844.21l-1.45-1.449s-1.327-6.23-3.624-5.8c0,0-1.23.059-.362,1.087,0,0,2.168,1.372.362,2.174,0,0-2.148,1.605-4.711-1.087,0,0-1.874-.633-.362,2.174,0,0-1.383,3.248,3.624,5.073,0,0,1.805.945,5.435,0Z" transform="translate(-64.159 -262.351)"/><path class="z" d="M804.087,815.672l14.132,2.174,5.073-14.132s2.442-9.395,6.885-7.972c0,0,4.3,3.151.725,12.32,0,0-3.8,11.494-7.61,15.582,0,0-1.206,1.944-4.711,1.449L803,821.47Z" transform="translate(-79.862 -235.988)"/><path class="a" d="M876.289,731.087a25.926,25.926,0,0,1-.362,5.8,7.532,7.532,0,0,0,.362,3.261s.712,2.719,1.087,3.986c0,0,.687,1.183,1.449.725,0,0,4.932-2.857,0,8.334l7.61-1.812.725-15.22L878.825,730Z" transform="translate(-126.335 -194.163)"/><path class="aa" d="M883.091,713.744s5.893-6.155,10.871,3.986a24.72,24.72,0,0,1,.725,3.261s.639,4.571,3.986,6.885a8.45,8.45,0,0,1,2.9,9.422s-1.149,3.75-3.624,5.073c0,0-3.13,3,1.449,5.073,0,0,.338,5.537-10.146,6.523,0,0-12.889-1.13-11.6-10.509,0,0-.013-2.242,3.624-6.16,0,0,3.285-4.367-.725-8.334,0,0-8.831-13.113-2.536-15.22A8.982,8.982,0,0,1,883.091,713.744Z" transform="translate(-126.252 -182.618)"/><g transform="translate(771.128 660.386)"><path class="b" d="M944.336,1083.6s-2.658-3.3-3.261-6.16c0,0,.163-4.469-3.986-3.624,0,0-2.349,2.651-1.449,9.422,0,0,.5,3.832.725,6.523,0,0-.205,1.431-.725,1.087,0,0-.365,5.3.725,5.8,0,0,1.549,1.365,4.711-3.261,0,0,2.313-2.437,2.174-4.711,0,0-1.525-4.844-1.812-5.436l2.174,1.812Z" transform="translate(-935.433 -1073.706)"/><g class="ab" transform="translate(0 0)"><path class="ac" d="M944.6,1098.034l-3.986-4.349s-1.6-.83-1.45,1.087a27.148,27.148,0,0,1,1.087,4.348s.172,2.618-.725,3.624c0,0-2.645,4.058-1.812,7.61l5.073-.362,2.9-7.61v-2.9Z" transform="translate(-936.784 -1086.331)"/></g></g><g transform="translate(742.859 669.189)"><path class="b" d="M861.617,1107.059s.432,2.129,2.174,1.087a12.186,12.186,0,0,0,1.449-2.536s3.013-6.931,5.8-7.61a16.293,16.293,0,0,0,1.812,2.174s1.386.963.725,3.261l-2.174,10.509-1.449-.362.362-7.972s-.32-.2-.725,1.087c0,0-1.894,4.78-5.073,5.436a7.455,7.455,0,0,1-6.885-3.261s-.918-1.912,1.087-1.812C858.718,1107.059,861.04,1107.068,861.617,1107.059Z" transform="translate(-857.421 -1098)"/><g class="ad" transform="translate(0 0)"><path class="ac" d="M871,1124.992s3.995-.556,6.523-6.16c0,0,1.718-1.712,1.087.362l-.362,3.261-4.349,3.986-2.9-.725Z" transform="translate(-866.079 -1110.859)"/></g></g></g></svg>