<svg xmlns="http://www.w3.org/2000/svg" width="17" height="14.062" viewBox="0 0 17 14.062">
  <path id="路径_10180" data-name="路径 10180" class="cls-1" d="M33.918,124.2,29.6,121.115l4.318-3.083Zm-3.637,2.581H45.919a.681.681,0,0,1,0,1.363H30.281a.681.681,0,0,1,0-1.363Zm15.646-11.336H30.281a.681.681,0,0,1,0-1.363H45.919a.683.683,0,0,1,.681.681A.676.676,0,0,1,45.927,115.443Zm0,4.233H35.758a.681.681,0,0,1,0-1.363H45.919a.683.683,0,0,1,.681.681A.676.676,0,0,1,45.927,119.676Zm0,4.233H35.758a.681.681,0,0,1,0-1.363H45.919a.683.683,0,0,1,.681.681A.676.676,0,0,1,45.927,123.909Z" transform="translate(-29.6 -114.08)"/>
</svg>
