<?xml version="1.0" standalone="no"?><!DOCTYPE svg PUBLIC "-//W3C//DTD SVG 1.1//EN" "http://www.w3.org/Graphics/SVG/1.1/DTD/svg11.dtd"><svg class="icon" width="200px" height="200.00px" viewBox="0 0 1024 1024" version="1.1" xmlns="http://www.w3.org/2000/svg"><path d="M540.444444 910.222222A426.666667 426.666667 0 1 1 967.111111 483.555556 427.178667 427.178667 0 0 1 540.444444 910.222222z m37.831112-573.553778a28.444444 28.444444 0 0 0-27.192889 21.219556l-73.614223 274.545778a28.444444 28.444444 0 0 0 20.138667 34.986666 27.192889 27.192889 0 0 0 7.452445 1.024 28.444444 28.444444 0 0 0 27.363555-21.162666l73.500445-274.830222a28.444444 28.444444 0 0 0-2.901334-21.845334 27.648 27.648 0 0 0-17.066666-12.913778 29.354667 29.354667 0 0 0-7.623112-0.967111z m81.749333 18.488889a28.444444 28.444444 0 0 0-20.138667 48.583111l99.612445 94.208-101.262223 100.977778a28.558222 28.558222 0 0 0 40.391112 40.448l120.604444-120.832a27.591111 27.591111 0 0 0 6.769778-10.808889 27.932444 27.932444 0 0 0-6.257778-30.663111l-119.466667-113.777778a29.013333 29.013333 0 0 0-20.366222-8.078222z m-240.071111-1.877333a28.444444 28.444444 0 0 0-20.081778 8.362667l-119.466667 113.777777a28.444444 28.444444 0 0 0-8.362666 20.423112 27.420444 27.420444 0 0 0 8.362666 19.683555v0.341333l120.490667 120.775112a29.013333 29.013333 0 0 0 20.138667 8.419555 29.582222 29.582222 0 0 0 20.138666-8.419555 28.444444 28.444444 0 0 0 8.362667-20.366223 27.591111 27.591111 0 0 0-8.362667-19.797333L340.935111 495.957333l99.100445-93.980444a28.444444 28.444444 0 0 0-20.081778-48.526222z"  /></svg>
