<?xml version="1.0" standalone="no"?><!DOCTYPE svg PUBLIC "-//W3C//DTD SVG 1.1//EN" "http://www.w3.org/Graphics/SVG/1.1/DTD/svg11.dtd"><svg t="1635479490220" class="icon" viewBox="0 0 1024 1024" version="1.1" xmlns="http://www.w3.org/2000/svg" p-id="2376" xmlns:xlink="http://www.w3.org/1999/xlink" width="200" height="200"><defs><style type="text/css"></style></defs><path d="M369.62986667 854.45973333H183.46666667a51.2 51.2 0 0 1 0-102.4h25.6V430.93333333a307.712 307.712 0 0 1 251.392-302.08V74.27413333a51.2 51.2 0 0 1 102.4 0v52.992A307.7632 307.7632 0 0 1 823.46666667 430.93333333v321.28h25.6a51.2 51.2 0 1 1 0 102.4h-174.08a153.6 153.6 0 0 1-305.3056 0z m155.904 33.8944a51.2 51.2 0 0 0 48.1792-33.8944H477.30346667a51.2 51.2 0 0 0 48.2304 33.9456z m195.3792-136.2944V430.93333333a204.8 204.8 0 0 0-198.0928-204.3392 51.2 51.2 0 0 1-11.1616 1.2288 52.3264 52.3264 0 0 1-9.3696-0.8704A204.8 204.8 0 0 0 311.46666667 430.93333333v321.28z" fill="#FFFFFF" p-id="2377"></path></svg>