<?xml version="1.0" standalone="no"?><!DOCTYPE svg PUBLIC "-//W3C//DTD SVG 1.1//EN" "http://www.w3.org/Graphics/SVG/1.1/DTD/svg11.dtd"><svg class="icon" width="200px" height="200.00px" viewBox="0 0 1024 1024" version="1.1" xmlns="http://www.w3.org/2000/svg"><path d="M546.076444 965.290667c-2.844444-1.877333-287.800889-200.021333-336.042666-284.444445a697.059556 697.059556 0 0 1-49.379556-214.129778 3375.900444 3375.900444 0 0 1-18.261333-189.553777l403.911111-216.576 403.399111 216.576c0 3.015111-18.545778 318.577778-67.356444 403.911111-48.298667 84.024889-333.141333 282.453333-336.042667 284.444444zM384.967111 478.492444a27.932444 27.932444 0 0 0-20.138667 8.305778 28.842667 28.842667 0 0 0 0 40.561778l120.604445 120.32a29.070222 29.070222 0 0 0 20.366222 8.419556 28.046222 28.046222 0 0 0 20.081778-8.419556l201.045333-200.988444a28.444444 28.444444 0 0 0 0-40.220445 27.534222 27.534222 0 0 0-20.024889-8.305778 28.103111 28.103111 0 0 0-20.195555 8.305778l-180.906667 180.906667-100.807111-100.579556a27.875556 27.875556 0 0 0-20.252444-8.248889z"  /></svg>
