<?xml version="1.0" standalone="no"?><!DOCTYPE svg PUBLIC "-//W3C//DTD SVG 1.1//EN" "http://www.w3.org/Graphics/SVG/1.1/DTD/svg11.dtd"><svg class="icon" width="200px" height="200.00px" viewBox="0 0 1024 1024" version="1.1" xmlns="http://www.w3.org/2000/svg"><path d="M170.666667 910.222222a56.888889 56.888889 0 0 1-56.888889-56.888889v-113.777777a56.888889 56.888889 0 0 1 56.888889-56.888889h739.555555a56.888889 56.888889 0 0 1 56.888889 56.888889v113.777777a56.888889 56.888889 0 0 1-56.888889 56.888889z m455.111111-284.444444a56.888889 56.888889 0 0 1-56.888889-56.888889V170.666667a56.888889 56.888889 0 0 1 56.888889-56.888889h284.444444a56.888889 56.888889 0 0 1 56.888889 56.888889v398.222222a56.888889 56.888889 0 0 1-56.888889 56.888889z m-455.111111 0a56.888889 56.888889 0 0 1-56.888889-56.888889V455.111111a56.888889 56.888889 0 0 1 56.888889-56.888889h284.444444a56.888889 56.888889 0 0 1 56.888889 56.888889v113.777778a56.888889 56.888889 0 0 1-56.888889 56.888889z m0-284.444445a56.888889 56.888889 0 0 1-56.888889-56.888889V170.666667a56.888889 56.888889 0 0 1 56.888889-56.888889h284.444444a56.888889 56.888889 0 0 1 56.888889 56.888889v113.777777a56.888889 56.888889 0 0 1-56.888889 56.888889z"  /></svg>
