<?xml version="1.0" standalone="no"?><!DOCTYPE svg PUBLIC "-//W3C//DTD SVG 1.1//EN" "http://www.w3.org/Graphics/SVG/1.1/DTD/svg11.dtd"><svg class="icon" width="200px" height="200.00px" viewBox="0 0 1024 1024" version="1.1" xmlns="http://www.w3.org/2000/svg"><path d="M142.222222 853.333333a28.444444 28.444444 0 1 1 0-56.888889h739.555556a28.444444 28.444444 0 1 1 0 56.888889z m28.444445-113.777777a56.888889 56.888889 0 0 1-56.888889-56.888889v-113.777778a56.888889 56.888889 0 0 1 56.888889-56.888889h190.122666a458.752 458.752 0 0 0 62.179556-173.568 142.222222 142.222222 0 1 1 166.798222 8.419556 424.163556 424.163556 0 0 0 51.2 164.977777H853.333333a56.888889 56.888889 0 0 1 56.888889 56.888889v113.777778a56.888889 56.888889 0 0 1-56.888889 56.888889z"  /></svg>
