<?xml version="1.0" standalone="no"?><!DOCTYPE svg PUBLIC "-//W3C//DTD SVG 1.1//EN" "http://www.w3.org/Graphics/SVG/1.1/DTD/svg11.dtd"><svg t="1635479475468" class="icon" viewBox="0 0 1024 1024" version="1.1" xmlns="http://www.w3.org/2000/svg" p-id="2249" xmlns:xlink="http://www.w3.org/1999/xlink" width="200" height="200"><defs><style type="text/css"></style></defs><path d="M358.31466667 891.73333333a102.4 102.4 0 0 1-89.088-51.9168l-159.5904-281.6a102.8608 102.8608 0 0 1 0-100.9664l159.5904-281.6A102.4 102.4 0 0 1 358.31466667 123.73333333h315.904a102.4 102.4 0 0 1 89.088 51.9168l159.5904 281.6a102.8608 102.8608 0 0 1 0 100.9664l-159.5904 281.6A102.4 102.4 0 0 1 674.16746667 891.73333333zM334.96746667 251.27253333L198.82666667 481.67253333a51.2 51.2 0 0 0 0 52.1216l136.192 230.4a51.2 51.2 0 0 0 44.032 25.1392h274.3808a51.2 51.2 0 0 0 44.032-25.1392l136.192-230.4a51.2 51.2 0 0 0 0-52.1216l-136.192-230.4a51.2 51.2 0 0 0-44.032-25.1392H379.05066667a51.2 51.2 0 0 0-44.0832 25.1392z m31.5904 254.2592a153.6 153.6 0 1 1 153.6 153.6 153.6 153.6 0 0 1-153.5488-153.6z m104.448-2.9184a51.2 51.2 0 1 0 51.2-51.2 51.2 51.2 0 0 0-51.2 51.2z" fill="#FFFFFF" p-id="2250"></path></svg>