<?xml version="1.0" standalone="no"?><!DOCTYPE svg PUBLIC "-//W3C//DTD SVG 1.1//EN" "http://www.w3.org/Graphics/SVG/1.1/DTD/svg11.dtd"><svg t="1635479501080" class="icon" viewBox="0 0 1024 1024" version="1.1" xmlns="http://www.w3.org/2000/svg" p-id="2503" xmlns:xlink="http://www.w3.org/1999/xlink" width="200" height="200"><defs><style type="text/css"></style></defs><path d="M768.0512 900.16426667h-512a51.2 51.2 0 0 1-51.2-51.2l-0.8704-372.5824-94.72-97.9456A51.2 51.2 0 0 1 104.96 310.95466667a51.2 51.2 0 0 1 9.3184-12.7488l181.0432-181.0432a51.2 51.2 0 0 1 68.2496-3.7376l0.6656-0.6144a205.7216 205.7216 0 0 0 147.712 63.3344 205.2608 205.2608 0 0 0 128.512-45.5168 51.2 51.2 0 0 1 80.3328-10.24l178.432 177.7664a51.2 51.2 0 0 1 12.032 18.944 51.2 51.2 0 0 1-9.5232 59.2896L819.2512 469.67466667v379.2896a51.2 51.2 0 0 1-51.2 51.2z m-51.2-102.4v-337.92a51.2 51.2 0 0 1 14.2336-45.0048l65.7408-74.2912-114.432-113.8176a307.7632 307.7632 0 0 1-170.4448 51.8656 303.4112 303.4112 0 0 1-177.0496-56.32L215.8592 341.41866667l73.984 76.4928a51.2 51.2 0 0 1 14.8992 33.4848 51.2 51.2 0 0 1 1.5872 12.6464l0.768 333.7216z" fill="#FFFFFF" p-id="2504"></path></svg>