<svg xmlns="http://www.w3.org/2000/svg" width="18" height="18" viewBox="0 0 18 18">
  <g id="组_17756" data-name="组 17756" transform="translate(-24 -346)">
    <g id="矩形_2580" data-name="矩形 2580" transform="translate(24 346)" stroke-width="1" opacity="0">
      <rect width="18" height="18" stroke="none"/>
      <rect x="0.5" y="0.5" width="17" height="17" fill="none"/>
    </g>
    <path id="xitongguanli" fill="currentColor" d="M17.121,6.912a1.141,1.141,0,0,0-.8-.843L16.039,6a2.789,2.789,0,0,1-1.611-1.281,2.818,2.818,0,0,1-.3-2.057l.088-.264a1.159,1.159,0,0,0-.327-1.123,7.867,7.867,0,0,0-1-.653A8.482,8.482,0,0,0,11.83.078,1.138,1.138,0,0,0,10.7.353l-.195.21a2.75,2.75,0,0,1-1.91.762A2.76,2.76,0,0,1,6.678.557l-.186-.2A1.142,1.142,0,0,0,5.362.078,8.21,8.21,0,0,0,4.3.625a7.757,7.757,0,0,0-1,.657A1.15,1.15,0,0,0,2.97,2.4l.08.267a2.822,2.822,0,0,1-.3,2.055A2.773,2.773,0,0,1,1.133,6.008l-.27.061a1.155,1.155,0,0,0-.8.843A7.839,7.839,0,0,0,0,8.112a7.84,7.84,0,0,0,.061,1.2,1.134,1.134,0,0,0,.8.843l.264.061A2.762,2.762,0,0,1,2.75,11.505a2.821,2.821,0,0,1,.3,2.057l-.076.261A1.159,1.159,0,0,0,3.3,14.946a7.867,7.867,0,0,0,1,.653,8.085,8.085,0,0,0,1.061.547,1.139,1.139,0,0,0,1.129-.276l.184-.2a2.775,2.775,0,0,1,3.84,0l.184.2a1.142,1.142,0,0,0,1.129.275,8.244,8.244,0,0,0,1.065-.547,7.517,7.517,0,0,0,1-.653,1.154,1.154,0,0,0,.327-1.123l-.08-.271a2.8,2.8,0,0,1,1.919-3.336l.264-.061a1.155,1.155,0,0,0,.8-.843,7.84,7.84,0,0,0,.061-1.2,8.091,8.091,0,0,0-.065-1.2ZM8.6,11.561a3.447,3.447,0,1,1,3.427-3.446A3.438,3.438,0,0,1,8.6,11.561Z" transform="translate(24.407 346.888)" fill="#666"/>
  </g>
</svg>
