<?xml version="1.0" standalone="no"?><!DOCTYPE svg PUBLIC "-//W3C//DTD SVG 1.1//EN" "http://www.w3.org/Graphics/SVG/1.1/DTD/svg11.dtd"><svg class="icon" width="200px" height="200.00px" viewBox="0 0 1024 1024" version="1.1" xmlns="http://www.w3.org/2000/svg"><path d="M706.616889 910.222222H317.326222a56.888889 56.888889 0 0 1-49.208889-28.444444l-195.072-341.333334a56.888889 56.888889 0 0 1 0-56.433777l195.072-341.333334a56.888889 56.888889 0 0 1 49.436445-28.444444h389.063111a56.888889 56.888889 0 0 1 49.208889 28.444444l195.072 341.333334a56.888889 56.888889 0 0 1 0 56.433777l-195.072 341.333334a56.888889 56.888889 0 0 1-49.208889 28.444444zM512 341.333333a170.666667 170.666667 0 1 0 170.666667 170.666667 170.951111 170.951111 0 0 0-170.666667-170.666667z"  /></svg>
