<?xml version="1.0" standalone="no"?><!DOCTYPE svg PUBLIC "-//W3C//DTD SVG 1.1//EN" "http://www.w3.org/Graphics/SVG/1.1/DTD/svg11.dtd"><svg class="icon" width="200px" height="200.00px" viewBox="0 0 1024 1024" version="1.1" xmlns="http://www.w3.org/2000/svg"><path d="M881.891556 853.219556h-682.666667a28.444444 28.444444 0 0 1 0-56.888889h682.666667a28.444444 28.444444 0 0 1 0 56.888889z m-28.444445-113.777778h-625.777778a60.302222 60.302222 0 0 1-56.888889-63.203556V233.756444a60.359111 60.359111 0 0 1 56.888889-63.317333h625.777778a60.359111 60.359111 0 0 1 56.888889 63.317333v442.481778a60.302222 60.302222 0 0 1-56.888889 63.203556z m-142.222222-341.333334a28.444444 28.444444 0 0 0-28.444445 28.444445v170.666667a28.444444 28.444444 0 0 0 56.888889 0v-170.666667a28.444444 28.444444 0 0 0-28.444444-28.444445z m-170.666667 56.888889a28.444444 28.444444 0 0 0-28.444444 28.444445v113.777778a28.444444 28.444444 0 1 0 56.888889 0v-113.777778a28.444444 28.444444 0 0 0-28.444445-28.444445z m-170.666666-113.777777a28.444444 28.444444 0 0 0-28.444445 28.444444v227.555556a28.444444 28.444444 0 0 0 56.888889 0v-227.555556a28.444444 28.444444 0 0 0-28.444444-28.444444z"  /></svg>
