<?xml version="1.0" standalone="no"?><!DOCTYPE svg PUBLIC "-//W3C//DTD SVG 1.1//EN" "http://www.w3.org/Graphics/SVG/1.1/DTD/svg11.dtd"><svg class="icon" width="200px" height="200.00px" viewBox="0 0 1024 1024" version="1.1" xmlns="http://www.w3.org/2000/svg"><path d="M113.777778 113.777778m113.777778 0l170.666666 0q113.777778 0 113.777778 113.777778l0 170.666666q0 113.777778-113.777778 113.777778l-170.666666 0q-113.777778 0-113.777778-113.777778l0-170.666666q0-113.777778 113.777778-113.777778Z"  /><path d="M113.777778 568.888889m113.777778 0l170.666666 0q113.777778 0 113.777778 113.777778l0 170.666666q0 113.777778-113.777778 113.777778l-170.666666 0q-113.777778 0-113.777778-113.777778l0-170.666666q0-113.777778 113.777778-113.777778Z"  /><path d="M398.222222 568.888889h113.777778v113.777778h-113.777778z"  /><path d="M398.222222 398.222222h113.777778v113.777778h-113.777778z"  /><path d="M568.888889 398.222222h113.777778v113.777778h-113.777778z"  /><path d="M568.888889 113.777778m113.777778 0l170.666666 0q113.777778 0 113.777778 113.777778l0 170.666666q0 113.777778-113.777778 113.777778l-170.666666 0q-113.777778 0-113.777778-113.777778l0-170.666666q0-113.777778 113.777778-113.777778Z"  /><path d="M568.888889 568.888889m113.777778 0l170.666666 0q113.777778 0 113.777778 113.777778l0 170.666666q0 113.777778-113.777778 113.777778l-170.666666 0q-113.777778 0-113.777778-113.777778l0-170.666666q0-113.777778 113.777778-113.777778Z"  /><path d="M568.888889 568.888889h113.777778v113.777778h-113.777778z"  /></svg>
