<svg xmlns="http://www.w3.org/2000/svg" width="16" height="16" viewBox="0 0 16 16"><defs><style>.a{fill:#fff;stroke:#707070;opacity:0;}.b{fill:#157efc;}.c{stroke:none;}.d{fill:none;}</style></defs><g class="a"><rect class="c" width="16" height="16"/><rect class="d" x="0.5" y="0.5" width="15" height="15"/></g><path class="b" d="M.5,14.506a.5.5,0,0,1,0-1h10a.5.5,0,0,1,0,1Zm4.5-4V1.679L.874,5.805A.5.5,0,0,1,.167,5.1L5.116.149a.564.564,0,0,1,.757,0l4.95,4.95a.5.5,0,1,1-.707.707L6,1.688v8.817a.5.5,0,1,1-1,0Z" transform="translate(2.501 0.494)"/></svg>