<?xml version="1.0" standalone="no"?><!DOCTYPE svg PUBLIC "-//W3C//DTD SVG 1.1//EN" "http://www.w3.org/Graphics/SVG/1.1/DTD/svg11.dtd"><svg class="icon" width="200px" height="200.00px" viewBox="0 0 1024 1024" version="1.1" xmlns="http://www.w3.org/2000/svg"><path d="M92.44444467 92.44444467m113.777778 0l170.666666 0q113.777778 0 113.777778 113.777778l0 170.666666q0 113.777778-113.777778 113.777778l-170.666666 0q-113.777778 0-113.777778-113.777778l0-170.666666q0-113.777778 113.777778-113.777778Z"  /><path d="M92.44444467 547.55555567m113.777778 0l170.666666 0q113.777778 0 113.777778 113.777778l0 170.666666q0 113.777778-113.777778 113.777778l-170.666666 0q-113.777778 0-113.777778-113.777778l0-170.666666q0-113.777778 113.777778-113.777778Z"  /><path d="M376.88888867 547.55555567h113.777778v113.777778h-113.777778z"  /><path d="M376.88888867 376.88888867h113.777778v113.777778h-113.777778z"  /><path d="M547.55555567 376.88888867h113.777778v113.777778h-113.777778z"  /><path d="M547.55555567 92.44444467m113.777778 0l170.666666 0q113.777778 0 113.777778 113.777778l0 170.666666q0 113.777778-113.777778 113.777778l-170.666666 0q-113.777778 0-113.777778-113.777778l0-170.666666q0-113.777778 113.777778-113.777778Z"  /><path d="M547.55555567 547.55555567m113.777778 0l170.666666 0q113.777778 0 113.777778 113.777778l0 170.666666q0 113.777778-113.777778 113.777778l-170.666666 0q-113.777778 0-113.777778-113.777778l0-170.666666q0-113.777778 113.777778-113.777778Z"  /><path d="M547.55555567 547.55555567h113.777778v113.777778h-113.777778z"  /></svg>
