<svg xmlns="http://www.w3.org/2000/svg" xmlns:xlink="http://www.w3.org/1999/xlink" width="160" height="48" viewBox="0 0 160 48"><defs><style>.a,.c{fill:#fff;}.a{stroke:#707070;opacity:0;}.b{fill:url(#a);}.d{fill:#1070e0;font-size:20px;font-family:FZZCHJW--GB1-0, FZZhengHeiS-B-GB;}.e{stroke:none;}.f{fill:none;}</style><linearGradient id="a" x2="1" y2="1" gradientUnits="objectBoundingBox"><stop offset="0" stop-color="#139ff6"/><stop offset="1" stop-color="#1376f6"/></linearGradient></defs><g transform="translate(-986 -277)"><g class="a" transform="translate(986 277)"><rect class="e" width="160" height="48"/><rect class="f" x="0.5" y="0.5" width="159" height="47"/></g><g transform="translate(672.865 -981.135)"><rect class="b" width="40" height="40" rx="8" transform="translate(320.135 1262.135)"/><path class="c" d="M12.844,18.487h0V12.843h5.643a5.578,5.578,0,1,1-5.643,5.643ZM0,18.422a5.578,5.578,0,0,1,5.513-5.578h5.643v5.643h0A5.578,5.578,0,0,1,0,18.422Zm12.843-7.265V5.513h0a5.578,5.578,0,1,1,5.643,5.643H12.843Zm-7.33,0h0a5.578,5.578,0,1,1,5.643-5.643h0v5.643Z" transform="translate(328.135 1270.135)"/></g><text class="d" transform="translate(1093 309)"><tspan x="-50" y="0">福生工作台</tspan></text></g></svg>