<?xml version="1.0" standalone="no"?><!DOCTYPE svg PUBLIC "-//W3C//DTD SVG 1.1//EN" "http://www.w3.org/Graphics/SVG/1.1/DTD/svg11.dtd"><svg class="icon" width="200px" height="200.00px" viewBox="0 0 1024 1024" version="1.1" xmlns="http://www.w3.org/2000/svg"><path d="M-21.33333333 21.33333333h1024v1024H-21.33333333z" fill="#FFFFFF" /><path d="M831.99999967 931.55555533H206.22222267a113.777778 113.777778 0 0 1-113.777778-113.777778V192.00000033a113.777778 113.777778 0 0 1 113.777778-113.777778h625.777777a113.777778 113.777778 0 0 1 113.777778 113.777778v625.777777a113.777778 113.777778 0 0 1-113.777778 113.777778z m-483.555555-114.232889a28.444444 28.444444 0 0 0 0 56.888889h113.777778a28.444444 28.444444 0 0 0 0-56.888889zM206.22222267 554.43911133a28.444444 28.444444 0 0 0-20.024889 48.583111l100.579555 100.579555-100.579555 100.579556a28.444444 28.444444 0 0 0 0 40.448 27.704889 27.704889 0 0 0 20.024889 8.305778 28.444444 28.444444 0 0 0 20.138666-8.305778l120.888889-121.002667a29.582222 29.582222 0 0 0 0-39.822222L226.36088867 563.14311133A28.444444 28.444444 0 0 0 206.22222267 554.55288933z m-28.444445-192a28.444444 28.444444 0 0 0-28.444444 28.444444 28.103111 28.103111 0 0 0 28.444444 28.444445h682.666667a28.444444 28.444444 0 0 0 0-56.888889z m369.777778-170.666667v113.777778h113.777778v-113.777778h-113.777778z m-170.666667 0v113.777778h113.777778v-113.777778H376.88888867z m-170.666666 0v113.777778h113.777777v-113.777778H206.22222267z" /></svg>
