<?xml version="1.0" standalone="no"?><!DOCTYPE svg PUBLIC "-//W3C//DTD SVG 1.1//EN" "http://www.w3.org/Graphics/SVG/1.1/DTD/svg11.dtd"><svg class="icon" width="200px" height="200.00px" viewBox="0 0 1024 1024" version="1.1" xmlns="http://www.w3.org/2000/svg"><path d="M455.111111 967.111111H256A85.333333 85.333333 0 0 1 170.666667 881.777778V568.888889H68.664889a28.444444 28.444444 0 0 1-20.138667-48.526222l443.335111-443.335111a28.444444 28.444444 0 0 1 40.220445 0l443.335111 443.335111a28.444444 28.444444 0 0 1-20.081778 48.526222H853.333333v312.888889a85.333333 85.333333 0 0 1-85.333333 85.333333H568.888889v-199.111111a28.444444 28.444444 0 0 0-28.444445-28.444444h-56.888888a28.444444 28.444444 0 0 0-28.444445 28.444444V967.111111z"  /></svg>
