<?xml version="1.0" standalone="no"?><!DOCTYPE svg PUBLIC "-//W3C//DTD SVG 1.1//EN" "http://www.w3.org/Graphics/SVG/1.1/DTD/svg11.dtd"><svg class="icon" width="200px" height="200.00px" viewBox="0 0 1024 1024" version="1.1" xmlns="http://www.w3.org/2000/svg"><path d="M514.78755567 989.127111a84.081778 84.081778 0 0 1-42.439111-11.377778l-332.8-192.113777a84.821333 84.821333 0 0 1-42.666667-74.353778l3.242667-392.533334a85.731556 85.731556 0 0 1 41.984-72.760888l338.204444-199.111112A85.617778 85.617778 0 0 1 523.66222267 34.986667a84.309333 84.309333 0 0 1 42.439111 11.377777l332.8 192.113778a85.333333 85.333333 0 0 1 42.666666 74.695111l-3.242666 392.248889a86.016 86.016 0 0 1-42.097778 72.760889l-338.204445 199.111111a84.138667 84.138667 0 0 1-43.235555 11.832889zM310.78399967 359.367111a28.444444 28.444444 0 0 0-24.803555 14.222222 28.444444 28.444444 0 0 0 10.695111 38.912l197.688889 114.460445h1.251555v214.357333a28.103111 28.103111 0 0 0 28.444445 28.444445 28.444444 28.444444 0 0 0 28.444444-28.444445V526.677333c0.341333 0 0.341333-0.341333 0.568889-0.341333l197.973333-114.460444a28.444444 28.444444 0 0 0-14.449777-53.134223 26.567111 26.567111 0 0 0-13.994667 3.868445l-197.973333 114.232889a2.446222 2.446222 0 0 0-0.910223 0.568889v-0.341334a0.625778 0.625778 0 0 0-0.568888-0.341333L325.46133367 362.496a27.761778 27.761778 0 0 0-14.677334-3.128889z"  /></svg>
