<?xml version="1.0" standalone="no"?><!DOCTYPE svg PUBLIC "-//W3C//DTD SVG 1.1//EN" "http://www.w3.org/Graphics/SVG/1.1/DTD/svg11.dtd"><svg class="icon" width="200px" height="200.00px" viewBox="0 0 1024 1024" version="1.1" xmlns="http://www.w3.org/2000/svg"><path d="M519.10795067 1002.55290167A483.501833 483.501833 0 1 1 1002.60978367 519.05106867 484.070659 484.070659 0 0 1 519.10795067 1002.55290167z m170.647706-682.590823a28.441284 28.441284 0 0 0-28.441284 28.441284v84.868792a63.936007 63.936007 0 0 0 0 116.154205V746.58134267a28.441284 28.441284 0 0 0 56.882568 0V547.49235267a64.391068 64.391068 0 0 0 33.390068-56.484391A63.424064 63.424064 0 0 0 718.19694067 435.03551467V348.23271467A28.441284 28.441284 0 0 0 689.75565667 319.96207867z m-170.647706 0a28.441284 28.441284 0 0 0-28.441284 28.441284v255.288968a63.936007 63.936007 0 0 0 0 116.381735v26.507277a28.441284 28.441284 0 0 0 56.882569 0V718.14005867a63.651594 63.651594 0 0 0 33.788245-56.427508 64.44795 64.44795 0 0 0-33.788245-56.484391V348.17583267A28.441284 28.441284 0 0 0 519.10795067 319.96207867z m-170.647706 0a28.441284 28.441284 0 0 0-28.441284 28.441284v27.986224a63.708477 63.708477 0 0 0 0 116.097322V746.58134267a28.441284 28.441284 0 1 0 56.882569 0V490.60978367a64.049772 64.049772 0 0 0 33.560715-56.25686A63.424064 63.424064 0 0 0 376.90152967 378.15294567v-29.920231A28.441284 28.441284 0 0 0 348.46024467 319.96207867z"  /></svg>
